<?xml version="1.0" encoding="UTF-8" standalone="no"?>
<svg viewBox="0 0 120 120" version="1.1" fill="currentColor" width="120" height="120" xmlns="http://www.w3.org/2000/svg"
   xmlns:svg="http://www.w3.org/2000/svg">
   <defs />
   <g transform="matrix(1.2,0,0,1.2,-12,-12)" style="stroke-width:0.833333">
      <g transform="matrix(0.76417119,0,0,0.76417119,-19.802652,22.100932)" style="stroke-width:1.09051">
         <path
            d="m 0,0 c 19.025,0 34.448,-15.423 34.448,-34.448 0,-5.421 -1.287,-10.531 -3.519,-15.094 h 7.906 c 1.823,4.686 2.861,9.764 2.861,15.094 0,23.029 -18.668,41.696 -41.696,41.696 -12.887,0 -24.403,-5.852 -32.051,-15.037 h 10.242 C -15.869,-2.924 -8.278,0 0,0"
            style="fill-rule:nonzero;stroke:none;stroke-width:1.09051"
            transform="matrix(1.3333333,0,0,-1.3333333,104.387,3.664)" clip-path="url(#clipPath4959)" />
         <path
            d="m 0,0 c -5.952,-4.905 -13.578,-7.852 -21.893,-7.852 -19.024,0 -34.448,15.423 -34.448,34.449 0,5.446 1.299,10.578 3.549,15.156 h -7.913 c -1.839,-4.702 -2.884,-9.803 -2.884,-15.156 0,-23.029 18.668,-41.697 41.696,-41.697 12.918,0 24.46,5.877 32.109,15.1 z"
            style="stroke:none;stroke-width:1.09051" transform="matrix(1.3333333,0,0,-1.3333333,133.5771,85.05666)"
            clip-path="url(#clipPath4961)" />
         <path
            d="m 0,0 -11.111,12.997 6.705,7.848 H 7.459 L 9.307,23.005 0,30.25 H -12.445 L -27.124,12.997 -11.111,-5.726 51.591,-5.751 52.803,0 Z"
            style="stroke:none;stroke-width:1.09051" transform="matrix(1.3333333,0,0,-1.3333333,99.4567,73.554)"
            clip-path="url(#clipPath4963)" />
         <path
            d="M 0,0 11.11,-12.996 4.406,-20.845 H -7.459 L -9.307,-23.004 0,-30.25 H 12.444 L 27.123,-12.996 11.11,5.727 -51.513,5.752 -52.741,0 Z"
            style="stroke:none;stroke-width:1.09051" transform="matrix(1.3333333,0,0,-1.3333333,109.3213,25.552)"
            clip-path="url(#clipPath4965)" />
      </g>
   </g>
</svg>