<svg id="Слой_1" data-name="Слой 1" xmlns="http://www.w3.org/2000/svg" viewBox="0 0 1984.25 409.31">
  <g>
    <path d="M1310.69,409.31H519.79l27.44-116.42c3.7-16.31,20-28.18,38.55-28.18h790.9l-27.44,116.42c-3.7,16.31-20,28.18-38.55,28.18" style="fill: #c50a73"/>
    <polygon points="624.25 318.94 614.21 374.57 595.23 374.57 605.27 318.94 587.03 318.94 589.81 303.37 646.2 303.37 643.42 318.94 624.25 318.94" style="fill: #fff"/>
    <polygon points="668.4 318.94 666.13 331.94 696.51 331.94 694.12 345.13 663.76 345.13 661.29 358.99 694.33 358.99 691.48 374.57 639.45 374.57 652.27 303.37 703.63 303.37 700.78 318.94 668.4 318.94" style="fill: #fff"/>
    <polygon points="780.14 303.37 754.23 337.92 768.85 374.57 746.74 374.57 737.51 347.13 718.53 374.57 696.21 374.57 724.14 337.92 710.37 303.37 732.58 303.37 740.63 329.47 758.3 303.37 780.14 303.37" style="fill: #fff"/>
    <polygon points="799.88 319.98 792 374.57 773.02 374.57 785.84 303.37 815.92 303.37 821.43 348.08 822.08 348.08 843.08 303.37 873.93 303.37 861.11 374.57 842.14 374.57 853.81 319.98 853.14 319.98 825.33 374.57 808.9 374.57 800.46 319.98 799.88 319.98" style="fill: #fff"/>
    <path d="M916.64,362.32H891.13l-5.71,12.25H865.67l34.18-71.2h28.87l8.83,71.2H918.18Zm-1.31-13.85L912.1,317.6h-.19l-14.25,30.87Z" style="fill: #fff"/>
    <path d="M960.9,374.57h-19l12.83-71.2h35.78a33.33,33.33,0,0,1,11.73,1.72,12.6,12.6,0,0,1,6.63,5.4,19,19,0,0,1,2.13,9.59,48.59,48.59,0,0,1-1,9.39q-1.8,10.42-4.8,16.13a17.76,17.76,0,0,1-8.68,8.22c-3.76,1.69-9,2.53-15.56,2.53H964.21Zm6.25-34.74h13a17.67,17.67,0,0,0,5.7-.68,5.2,5.2,0,0,0,2.84-2.83,28.48,28.48,0,0,0,1.82-6.85,25.68,25.68,0,0,0,.56-4.63q0-2.79-1.59-3.87c-1.07-.72-3-1.08-5.71-1.08h-13Z" style="fill: #fff"/>
    <polygon points="1041.76 303.37 1036.91 330.13 1042.62 330.13 1065.79 303.37 1088.75 303.37 1057.42 338.29 1078.02 374.57 1054.48 374.57 1039.66 346.67 1033.97 346.67 1028.94 374.57 1009.96 374.57 1022.77 303.37 1041.76 303.37" style="fill: #fff"/>
    <polygon points="1110.29 318.94 1108.02 331.94 1138.41 331.94 1136.01 345.13 1105.65 345.13 1103.17 358.99 1136.22 358.99 1133.38 374.57 1081.33 374.57 1094.16 303.37 1145.52 303.37 1142.67 318.94 1110.29 318.94" style="fill: #fff"/>
    <polygon points="1186.98 318.94 1176.94 374.57 1157.97 374.57 1168.01 318.94 1149.76 318.94 1152.54 303.37 1208.93 303.37 1206.15 318.94 1186.98 318.94" style="fill: #fff"/>
    <path d="M1230.27,329.37h17.48a28.15,28.15,0,0,1,10.31,1.66,12.47,12.47,0,0,1,6.29,5.17,17.18,17.18,0,0,1,2.1,8.93,37.77,37.77,0,0,1-.67,6.84,33.5,33.5,0,0,1-4.79,12.9,20.19,20.19,0,0,1-8.68,7.34,30.83,30.83,0,0,1-12.54,2.36h-36.64l12.82-71.2h19ZM1225,359h13.19q4.18,0,6-1.4c1.24-.93,2.07-2.74,2.52-5.44a17.83,17.83,0,0,0,.28-2.85c0-1.7-.49-2.85-1.46-3.45a9.85,9.85,0,0,0-4.91-.9h-13.19Zm60.28-55.62-12.82,71.2h19l12.81-71.2Z" style="fill: #fff"/>
    <g>
      <path d="M1575.88,35.6H1435.82q-22.78,0-36.58,9.9t-18,29.68l-30.32,143.56H1413l11.41-53.87h108.23l-11.4,53.87h62.14s30.94-147.49,31.17-149.31a38,38,0,0,0,.39-5.52Q1615,35.61,1575.88,35.6Zm-35.52,91.69H1432.24l8.31-38.58q2-8.76,11.27-8.76h88.93q8.28,0,8.27,6.26C1549,87.38,1540.36,127.29,1540.36,127.29Z" style="fill: #fff"/>
      <path d="M820.27,65.41q0-29.8-41.1-29.81H599.27L560.45,218.74H740.09q51.38,0,60.38-43.84s5.26-26.47,5.26-29.82q0-15.79-13.77-22.54,19.29-8.52,23.79-29.82s4.52-25.46,4.52-27.31m-78.42,100q-2,9-12.29,9h-99.7l6-27.92h99.72c5.67,0,8.52,2.18,8.52,6.51C744.06,154,741.85,165.38,741.85,165.38Zm13.48-64.52c-1,4.69-4.25,7-9.78,7H644.1l5.81-27.94H751.37c4.68,0,7,1.68,7,5C758.38,85.29,755.33,100.86,755.33,100.86Z" style="fill: #fff"/>
      <path d="M1041.73,35.6a48,48,0,0,0-17,3,40.43,40.43,0,0,0-14.52,9.52L892.67,163.62,920,35.6H858.09L819,218.74h58.09q18.54,0,31.06-12.53L1026,90.47,998.9,218.74h61.86L1099.53,35.6Z" style="fill: #fff"/>
      <path d="M1355.4,67.41q0-31.78-43.1-31.81H1132.67l-38.83,183.15H1156l11.27-53.88h117.51q51.36,0,60.63-44.58s10-48.87,10-52.88m-69.14,43.85q-2,9.54-12.53,9.53h-97l8.54-40.85h97q8.76,0,8.76,6.52C1291,87.79,1286.26,111.26,1286.26,111.26Z" style="fill: #fff"/>
      <polygon points="1839.18 104.99 1830.66 104.99 1845.45 35.6 1785.32 35.6 1770.54 104.99 1762.03 104.99 1713.17 35.6 1646.52 35.6 1646.02 37.85 1703.4 124.28 1602.43 216.49 1602.19 218.75 1671.07 218.75 1754.01 143.33 1762.28 143.33 1746.48 218.75 1806.62 218.75 1822.4 143.33 1830.66 143.33 1882.02 218.75 1950.93 218.75 1951.18 216.49 1889.79 124.28 1983.74 37.85 1984.25 35.6 1917.6 35.6 1839.18 104.99" style="fill: #fff"/>
    </g>
    <g>
      <path d="M240.71,35.57A168.79,168.79,0,0,1,392.52,278.74h38.81a203.74,203.74,0,0,0,14-74.08C445.37,91.62,353.74,0,240.71,0A204.2,204.2,0,0,0,83.39,73.8h50.27A168.37,168.37,0,0,1,240.71,35.57" style="fill: #fff"/>
      <path d="M348.17,335.2A168.94,168.94,0,0,1,89,130.26H50.2A203.84,203.84,0,0,0,36,204.65c0,113,91.64,204.66,204.67,204.66a204.22,204.22,0,0,0,157.6-74.11Z" style="fill: #fff"/>
      <polygon points="222.56 292.85 168.03 229.06 200.93 190.54 259.17 190.54 268.24 179.94 222.56 144.37 161.48 144.37 89.42 229.06 168.03 320.96 475.79 321.09 481.73 292.85 222.56 292.85" style="fill: #fff"/>
      <polygon points="258.87 116.14 313.4 179.94 280.5 218.46 222.26 218.46 213.19 229.06 258.87 264.62 319.96 264.62 392 179.94 313.4 88.04 6.03 87.91 0 116.14 258.87 116.14" style="fill: #fff"/>
    </g>
  </g>
</svg>
